<svg id="Layer_1" data-name="Layer 1" xmlns="http://www.w3.org/2000/svg" viewBox="0 0 540.47 132"><defs><style>.cls-1{font-size:75.33px;font-family:AquawaxProTrial-Regular, Aquawax Pro Trial;letter-spacing:-0.05em;}.cls-2,.cls-3{letter-spacing:-0.05em;}.cls-3{font-family:AquawaxProTrial-Medium, Aquawax Pro Trial;font-weight:500;}.cls-4,.cls-5,.cls-6{font-family:AquawaxProTrial-Bold, Aquawax Pro Trial;font-weight:700;}.cls-5{letter-spacing:-0.08em;}.cls-6{letter-spacing:-0.05em;}</style></defs><path d="M153,378v24h24.45A16.55,16.55,0,0,0,194,385.45V361H170A17,17,0,0,0,153,378Zm-30.45-60A16.55,16.55,0,0,0,106,334.55V359h24.45A16.55,16.55,0,0,0,147,342.45V318H122.55ZM217,314a17,17,0,0,0-17,17v24h24.45A16.55,16.55,0,0,0,241,338.45V314Zm-46.46-44A16.55,16.55,0,0,0,154,286.55V311h24.45A16.55,16.55,0,0,0,195,294.45V270H170.55Z" transform="translate(-106 -270)"/><text class="cls-1" transform="translate(161.23 89.55)">U<tspan class="cls-2" x="50.17" y="0">F</tspan><tspan class="cls-3" x="89.83" y="0">.</tspan><tspan class="cls-4" x="102.63" y="0">compl</tspan><tspan class="cls-5" x="299.92" y="0">a</tspan><tspan class="cls-6" x="337.36" y="0">y</tspan></text></svg>